<?xml version="1.0" standalone="no"?>
<!DOCTYPE svg PUBLIC "-//W3C//DTD SVG 20010904//EN"
 "http://www.w3.org/TR/2001/REC-SVG-20010904/DTD/svg10.dtd">
<svg version="1.0" xmlns="http://www.w3.org/2000/svg"
 width="1024.000000pt" height="1024.000000pt" viewBox="0 0 1024.000000 1024.000000"
 preserveAspectRatio="xMidYMid meet">

<g transform="translate(0.000000,1024.000000) scale(0.100000,-0.100000)"
fill="#000000" stroke="none">
<path d="M0 5120 l0 -5120 5120 0 5120 0 0 5120 0 5120 -5120 0 -5120 0 0
-5120z m5612 3834 c249 -63 894 -226 1433 -360 539 -135 983 -248 987 -252 4
-4 8 -830 9 -1835 l2 -1828 310 3 309 3 -6 -80 c-4 -44 -33 -348 -66 -675 -33
-327 -75 -761 -94 -965 -20 -203 -52 -530 -71 -725 -19 -195 -35 -358 -35
-363 0 -6 -302 -8 -759 -6 l-758 4 -134 -86 c-168 -108 -442 -272 -624 -374
-297 -167 -934 -475 -981 -475 -23 0 -349 150 -624 286 -368 184 -632 332
-972 546 l-158 99 -759 -7 -759 -7 -6 44 c-4 24 -29 267 -56 539 -106 1053
-210 2098 -216 2170 l-6 75 318 -3 319 -3 -3 1553 c-1 854 -3 1680 -5 1836 -2
276 -1 283 18 287 51 12 669 161 925 224 265 64 1467 362 1820 450 85 22 163
39 172 40 10 1 221 -51 470 -115z"/>
<path d="M3758 8512 l-1338 -335 1 -1581 c1 -870 5 -1646 9 -1726 7 -125 27
-276 47 -359 l6 -24 -352 6 c-290 5 -351 4 -351 -7 0 -13 41 -427 100 -996 16
-157 55 -545 87 -864 l58 -578 745 3 745 4 65 -45 c304 -213 892 -536 1401
-770 165 -76 140 -75 289 -10 420 183 975 490 1355 750 l119 82 738 -4 737 -3
6 35 c6 38 58 553 165 1635 38 385 71 717 74 739 l4 38 -346 -3 c-288 -3 -347
-2 -344 10 1 7 10 45 18 85 8 39 19 116 23 171 5 55 8 845 7 1755 l-1 1655
-525 131 c-289 72 -768 193 -1065 269 -1011 258 -1080 275 -1110 273 -16 0
-632 -152 -1367 -336z m1202 -166 c494 -66 914 -329 1192 -746 129 -194 212
-396 260 -632 20 -99 23 -141 22 -348 0 -267 -12 -346 -85 -564 -146 -439
-464 -807 -874 -1011 -146 -73 -261 -113 -415 -146 -90 -20 -135 -23 -320 -23
-183 -1 -232 3 -325 22 -177 35 -358 102 -496 183 -37 21 -70 39 -73 39 -3 0
-26 -28 -53 -62 -122 -160 -346 -431 -420 -509 -46 -47 -106 -99 -135 -115
-50 -27 -60 -29 -168 -29 -110 0 -118 2 -182 33 -152 75 -258 250 -258 426 0
123 10 136 321 432 151 144 291 280 313 302 l38 40 -59 99 c-343 564 -333
1296 24 1838 295 447 737 724 1243 778 89 10 355 5 450 -7z m-1752 -4091 c1
-3 2 -45 2 -95 l0 -90 -180 0 -180 0 0 -95 0 -95 165 0 165 0 0 -95 0 -95
-165 0 -165 0 0 -190 0 -190 -115 0 -115 0 0 478 0 477 292 -2 c161 -1 294 -5
296 -8z m273 5 l99 0 0 -475 0 -475 -115 0 -115 0 0 481 c0 435 2 481 16 475
9 -3 60 -6 115 -6z m536 -37 c13 -21 78 -140 145 -265 l123 -227 3 267 2 267
110 -2 c61 -1 110 -4 110 -7 0 -3 0 -218 0 -476 l0 -471 -116 3 -116 3 -130
240 c-71 132 -136 255 -144 273 -8 17 -16 32 -18 32 -3 0 -4 -105 -4 -232 0
-128 0 -252 -1 -275 l-1 -43 -110 0 -110 0 0 478 0 477 117 -2 118 -2 22 -38z
m1281 21 c59 -17 122 -67 145 -117 13 -26 16 -87 19 -333 l2 -301 -24 -48
c-14 -26 -41 -61 -60 -76 -63 -50 -125 -59 -422 -59 l-268 0 0 473 c0 261 2
476 4 478 2 2 127 3 278 1 207 -2 286 -6 326 -18z m570 -458 l2 -476 -115 0
-115 0 0 478 0 477 112 -2 113 -2 3 -475z m476 411 c18 -34 84 -154 145 -267
l111 -205 0 270 0 270 110 0 110 0 0 -477 0 -478 -118 0 -118 0 -132 243 c-72
133 -138 257 -147 275 -9 17 -17 32 -18 32 -1 0 -2 -123 -2 -273 l-1 -272
-112 -3 -112 -3 0 478 0 478 125 -3 125 -3 34 -62z m1217 62 c93 -32 137 -97
142 -213 l3 -76 -103 0 c-57 0 -106 0 -110 0 -5 0 -9 18 -11 40 -5 58 -27 70
-137 70 -144 0 -135 19 -135 -285 0 -217 2 -256 16 -269 21 -21 225 -23 243
-2 6 7 14 41 17 75 l7 61 -77 0 -76 0 0 90 0 90 180 0 180 0 0 -176 c0 -201
-8 -242 -58 -290 -59 -57 -106 -66 -319 -62 -172 3 -192 5 -230 25 -50 27 -87
73 -102 128 -15 54 -15 606 0 660 17 60 46 95 103 121 48 22 62 24 242 24 116
0 204 -4 225 -11z m-3684 -1136 c57 -42 68 -68 71 -169 l4 -94 -91 0 -91 0 0
48 c0 26 -5 53 -12 60 -17 17 -133 16 -147 -2 -8 -9 -11 -90 -9 -272 l3 -259
68 -3 c85 -4 97 5 97 69 l0 49 90 0 90 0 0 -67 c0 -38 -5 -86 -11 -108 -14
-50 -64 -100 -114 -114 -51 -14 -238 -14 -288 0 -53 14 -105 63 -117 110 -7
26 -10 153 -8 352 3 346 4 352 70 399 29 20 48 24 158 28 148 6 202 0 237 -27z
m-1217 -58 l0 -85 -125 0 -125 0 0 -95 0 -95 105 0 105 0 0 -80 0 -80 -105 0
-105 0 0 -100 0 -100 125 0 125 0 0 -85 0 -85 -220 0 -220 0 0 445 0 445 220
0 220 0 0 -85z m323 -42 c46 -109 67 -144 67 -113 0 5 21 62 48 125 l47 115
93 0 c50 0 92 -2 92 -5 0 -3 -41 -103 -90 -221 -73 -174 -88 -219 -80 -234 12
-23 180 -421 180 -427 0 -2 -43 -2 -97 -1 l-96 3 -55 132 -56 133 -56 -133
-57 -132 -97 -3 -97 -3 15 33 c8 18 30 69 49 113 19 44 58 131 85 192 l51 113
-88 199 c-49 109 -92 208 -96 220 -6 21 -5 22 90 19 l97 -3 51 -122z m1530 39
l2 -82 -122 0 -123 0 0 -95 0 -95 105 0 105 0 0 -80 0 -80 -105 0 -105 0 0
-100 0 -100 123 0 122 0 -2 -85 c-1 -47 -4 -85 -7 -85 -3 0 -100 0 -216 0
l-210 0 0 445 0 445 216 -2 216 -3 1 -83z m317 -272 l0 -360 115 0 115 0 0
-85 0 -85 -210 0 -210 0 0 445 0 445 95 0 95 0 0 -360z m530 0 l0 -360 110 0
110 0 0 -87 0 -88 -205 0 -205 0 0 448 0 447 95 0 95 0 0 -360z m760 275 l0
-85 -125 0 -125 0 0 -95 0 -94 108 -3 107 -3 3 -77 3 -78 -111 0 -110 0 0
-100 0 -100 125 0 125 0 0 -85 c0 -84 0 -85 -25 -85 -14 0 -112 -1 -217 -1
l-193 0 -3 446 -2 445 220 0 220 0 0 -85z m423 -157 l107 -243 0 243 0 242 90
0 90 0 0 -445 0 -445 -93 0 -92 0 -107 243 -108 242 0 -242 0 -243 -90 0 -90
0 0 445 0 445 93 0 93 0 107 -242z m873 216 c58 -43 69 -68 72 -170 l4 -94
-91 0 -91 0 0 49 c0 63 -13 73 -92 69 l-63 -3 0 -270 0 -270 69 -3 c80 -3 86
1 86 71 l0 47 91 0 91 0 -4 -94 c-3 -83 -7 -98 -31 -130 -49 -63 -74 -71 -232
-71 -163 0 -204 13 -242 81 -22 38 -23 46 -23 363 0 307 1 327 21 367 14 30
32 49 62 64 38 19 56 20 194 18 135 -3 155 -5 179 -24z m634 -59 l0 -85 -125
0 -125 0 0 -95 0 -95 105 0 105 0 0 -80 0 -80 -105 0 -105 0 0 -100 0 -100
125 0 125 0 0 -85 0 -85 -220 0 -220 0 0 445 0 445 220 0 220 0 0 -85z"/>
<path d="M4546 8180 c-242 -28 -443 -98 -649 -224 -308 -191 -554 -514 -660
-868 -51 -167 -62 -256 -61 -473 0 -156 4 -208 22 -291 26 -118 80 -282 124
-368 36 -73 127 -215 173 -272 l34 -41 -355 -347 c-195 -192 -362 -362 -370
-379 -11 -21 -15 -48 -12 -86 11 -150 154 -293 279 -278 70 9 117 37 190 114
56 60 448 526 538 639 l33 42 76 -53 c155 -106 333 -181 528 -221 175 -36 415
-39 571 -5 306 64 558 198 774 411 260 256 414 559 470 925 18 117 15 361 -5
475 -119 679 -610 1178 -1266 1286 -110 18 -333 25 -434 14z m446 -359 c214
-49 409 -154 566 -305 187 -180 298 -387 357 -661 24 -109 24 -340 1 -457 -88
-457 -397 -815 -824 -958 -475 -159 -1015 15 -1328 429 -117 154 -213 378
-245 570 -15 86 -15 297 0 382 64 382 296 710 625 885 135 71 261 112 431 138
71 11 332 -4 417 -23z"/>
<path d="M4392 7475 c-335 -76 -499 -118 -512 -130 -20 -18 -20 -34 -20 -727
0 -464 4 -716 10 -728 6 -11 19 -24 30 -30 19 -10 992 -220 1021 -220 9 0 28
9 43 21 25 19 26 25 26 110 l0 89 283 0 c302 0 313 2 350 52 20 27 20 41 20
702 -1 478 -4 680 -12 695 -26 47 -50 51 -356 51 l-285 0 0 95 c0 110 -14 136
-72 134 -18 -1 -255 -52 -526 -114z m718 -350 l0 -115 -60 0 -60 0 0 115 0
115 60 0 60 0 0 -115z m420 -5 l0 -120 -150 0 -150 0 0 120 0 120 150 0 150 0
0 -120z m-1175 -225 c86 -156 72 -155 139 -16 l58 121 90 0 c49 0 88 -3 86 -7
-1 -5 -42 -82 -90 -173 -47 -91 -92 -177 -98 -191 -11 -24 -4 -40 91 -205 56
-99 109 -189 117 -201 l14 -23 -103 0 -104 0 -65 125 c-35 69 -67 125 -70 125
-3 0 -32 -55 -65 -123 l-60 -122 -97 -3 c-54 -1 -98 -1 -98 2 0 7 187 354 204
378 14 19 10 30 -44 137 -33 64 -80 153 -105 199 l-46 82 94 0 95 0 57 -105z
m755 -120 l0 -110 -60 3 -60 4 0 106 0 107 60 0 60 0 0 -110z m420 0 l0 -105
-107 -1 c-60 0 -127 -2 -150 -4 l-43 -3 0 109 0 109 150 0 150 0 0 -105z
m-420 -335 l0 -110 -60 0 -60 0 0 110 0 110 60 0 60 0 0 -110z m420 0 l0 -110
-150 0 -150 0 0 110 0 110 150 0 150 0 0 -110z m-420 -345 l0 -115 -60 0 -60
0 0 115 0 115 60 0 60 0 0 -115z m420 0 l0 -115 -150 0 -150 0 0 115 0 115
150 0 150 0 0 -115z"/>
<path d="M4930 3792 l0 -284 136 4 c186 4 174 -15 174 277 0 293 10 279 -198
283 l-112 3 0 -283z"/>
</g>
</svg>
